<svg id="Réteg_1" data-name="Réteg 1" xmlns="http://www.w3.org/2000/svg" viewBox="0 0 346.8 384.3"><defs><style>.cls-1{fill:#84a947;}</style></defs><title>dress</title><path class="cls-1" d="M227.5,170.5l22.3,9.64q3.25,1.41,6.54,2.78c6.14,2.54,5.93,2.53,5.69,9-.4,11.22-.72,22.44-.67,33.66.06,11.72.66,23.44.8,35.15a4.57,4.57,0,0,1-2.22,3.5c-10.6,4.43-21.23,8.77-32,12.84-8,3-14.27-.67-16.61-8.91a157.79,157.79,0,0,1-5.4-55.62c.87-11.49,3.51-22.91,6.12-34.18.69-2.95,4.2-5.25,6.42-7.85Z" transform="translate(-133.52 -170.5)"/><path class="cls-1" d="M395.5,170.5c8,4.44,7.86,12.85,9.6,20.18a142,142,0,0,1,2.95,44.67c-1,11.62-3.55,23.15-6,34.58-1.45,6.72-8.61,9.88-15.64,7.25-11-4.12-21.85-8.59-32.68-13.1a4.28,4.28,0,0,1-1.89-3.36c.2-21.08.58-42.16.82-63.24a35.53,35.53,0,0,0-.84-8.17c-.65-2.94.39-4.28,3.05-5.33,9.17-3.62,18.27-7.43,27.37-11.23,1.48-.61,2.86-1.49,4.28-2.25Z" transform="translate(-133.52 -170.5)"/><path class="cls-1" d="M429,248.08c4.93,4,9.08,7.38,13.18,10.78,10.18,8.45,20.39,16.87,30.48,25.43,3.87,3.28,8.38,6.48,7.51,12.52a18.37,18.37,0,0,1-2.59,7.62q-16.77,24.4-34,48.5c-2.44,3.4-3.07,6.21-1.34,10.23,8.31,19.41,16.33,38.94,24.4,58.45,3.29,8,1.94,12.71-4.93,18q-51.36,39.26-102.71,78.51c-14.38,11-28.72,22.07-43.11,33.07-6.37,4.88-11.58,4.85-18-.07q-56.87-43.46-113.71-87C173.62,456,163,447.85,152.42,439.73c-7.17-5.49-8.43-10.25-5-18.55,8.26-19.84,16.42-39.71,24.76-59.51a6.71,6.71,0,0,0-.84-7.26q-16.91-23.85-33.64-47.82c-.86-1.23-1.73-2.46-2.47-3.76-2.82-4.95-2.26-10.95,2-14.67,10.44-9.11,21.1-18,31.69-26.89q5.72-4.83,11.5-9.59c1.23-1,2.56-1.88,4.45-3.24.55,2.45.93,4.33,1.4,6.19,2.16,8.57,3.68,17.39,6.7,25.66,3.28,9,10.58,14.68,19.64,17.78,2.46.84,3.53,1.94,3.73,4.69a316.74,316.74,0,0,0,75.82,185.43q2.79,3.29,5.68,6.47c5.44,6,12.89,6.07,18.26,0a339.5,339.5,0,0,0,37.78-51.16A308.42,308.42,0,0,0,392,344.26c2.65-13.69,3.92-27.66,5.61-41.53.3-2.45,1-3.72,3.41-4.55,11.59-4,19.19-11.92,22.25-23.85,1.74-6.76,3-13.64,4.52-20.47C428.14,252.31,428.47,250.75,429,248.08Z" transform="translate(-133.52 -170.5)"/><path class="cls-1" d="M306.92,472.73c-6.84-9.2-13.25-17.18-19-25.63a291.52,291.52,0,0,1-46.67-117.5c-1.5-9.1-2.17-18.33-3.31-27.49-.47-3.87.69-6.16,4.66-7.62,9.84-3.63,19.52-7.71,29.21-11.73,2.28-.95,4.15-1.08,6.3.34,5.27,3.5,11.35,4.81,17.48,4.88,9.84.1,19.72-.11,29.53-1,3.8-.32,7.39-2.84,11.17-4.06a8.54,8.54,0,0,1,5.17-.31c10.05,3.81,19.92,8.07,30,11.78,3.85,1.41,5.05,3.66,4.5,7.35-2.31,15.54-3.9,31.24-7.11,46.6-5.35,25.57-14.77,49.81-27.15,72.81a279.84,279.84,0,0,1-32.37,48.11C308.73,470.07,308.21,470.93,306.92,472.73Zm10.57-152.29c0-6.38-4.2-10.48-10.64-10.43-6.23.05-10.29,4.13-10.33,10.36,0,6.44,4.05,10.6,10.44,10.62S317.51,326.86,317.49,320.44Zm0,48c0-6.4-4.18-10.49-10.62-10.45-6.23.05-10.31,4.12-10.35,10.34,0,6.45,4,10.62,10.43,10.64S317.5,374.88,317.49,368.46Zm0,48.19c.05-6.45-4-10.62-10.43-10.63s-10.43,4-10.54,10.14c-.12,6.49,3.9,10.74,10.24,10.83S317.44,423,317.49,416.65Z" transform="translate(-133.52 -170.5)"/><path class="cls-1" d="M330.3,224.81c0,9.74,0,19.48,0,29.22,0,7.7-4.12,11.72-11.89,11.76s-15.48.06-23.22,0c-7.24-.06-11.44-4.2-11.46-11.43q-.08-29.78,0-59.56c0-7.32,4.12-11.5,11.32-11.57q12-.12,24,0c7,.07,11.21,4.23,11.27,11.24C330.36,204.57,330.3,214.69,330.3,224.81Z" transform="translate(-133.52 -170.5)"/></svg>