<svg id="Réteg_1" data-name="Réteg 1" xmlns="http://www.w3.org/2000/svg" viewBox="0 0 225.67 234.86"><defs><style>.cls-1{fill:#84a947;}</style></defs><title>gift</title><path class="cls-1" d="M187.34,505.17c-5.74-2.49-8-6.8-7.91-13.08.19-26.43.08-52.86.09-79.28,0-7.87,4.3-12.17,12.16-12.17H265c4.87,0,5.78.9,5.78,5.72q0,47.08,0,94.18a24.42,24.42,0,0,1-.9,4.63Z" transform="translate(-167.1 -270.31)"/><path class="cls-1" d="M290,505.17a19.48,19.48,0,0,1-.91-4.17q-.08-47.55,0-95.1c0-4.2,1.08-5.26,5.32-5.26h74.47c6.95,0,11.48,4.54,11.48,11.48,0,26.66-.1,53.31.09,80,0,6.28-2.17,10.59-7.91,13.08Z" transform="translate(-167.1 -270.31)"/><path class="cls-1" d="M222.24,388.76H179.17c-4,0-7.49-1.25-9.78-4.54a11.34,11.34,0,0,1-2.15-5.86c-.19-12-.14-24-.08-36,0-5.73,4.82-10.11,11.25-10.48,1.44-.08,2.9,0,4.35,0h81.57a24.66,24.66,0,0,1,3,.11,3.55,3.55,0,0,1,3.46,3.82c0,2.75,0,5.5,0,8.25q0,19.94,0,39.87c0,3.67-1.1,4.8-4.78,4.8Q244.13,388.78,222.24,388.76Z" transform="translate(-167.1 -270.31)"/><path class="cls-1" d="M337.54,388.76H295.37a19.63,19.63,0,0,1-3-.14,3.51,3.51,0,0,1-3.34-3.88c0-16.12,0-32.24,0-48.35,0-3.28,1.29-4.48,4.7-4.49q20.27,0,40.55,0,22.92,0,45.83,0c3.8,0,7.46.8,9.8,4,1.32,1.82,2.59,4.19,2.64,6.33.25,12.06.18,24.14.09,36.2-.05,5.75-5.21,10.27-11.62,10.3-12.06.05-24.13,0-36.2,0Z" transform="translate(-167.1 -270.31)"/><path class="cls-1" d="M233.52,324.33a60.78,60.78,0,0,1-21.63-3.28c-8.56-3.1-15.34-8.29-17.27-17.66-2-9.78.07-18.89,7.06-26.29,4.14-4.39,9.65-6.26,15.66-6.65,9.3-.6,18,1.65,26.4,5.44,10.16,4.59,19.63,10.27,27.46,18.27,3.85,3.93,6.47,8.6,4.69,14.49-1.3,4.32-4.51,7-8.31,9-7.09,3.66-14.82,5.13-22.66,6C241.14,324.05,237.32,324.11,233.52,324.33Zm20.74-20.67a9.6,9.6,0,0,0-1-1.25c-6.1-4.49-12.47-8.53-19.61-11.17-4.73-1.75-9.57-3.15-14.72-2.85-3.55.2-5.31,1.52-6.19,5a26.2,26.2,0,0,0-.6,4,4.93,4.93,0,0,0,3.17,5.31,39.86,39.86,0,0,0,7.33,2.5c7.16,1.59,14.39,1.28,21.6.29C247.42,305.06,250.59,304.34,254.26,303.66Z" transform="translate(-167.1 -270.31)"/><path class="cls-1" d="M327.42,324.15c-10.93.15-20.74-1.08-30.16-4.49a29.85,29.85,0,0,1-8.61-4.64c-6.77-5.47-6.62-13.48-.14-20.39,5.82-6.21,12.78-10.86,20.17-14.89,6.77-3.7,13.78-7,21.45-8.39,7.34-1.35,14.68-1.83,21.79,1.32a20.49,20.49,0,0,1,9.9,8.85c5.19,9.39,6.44,19.08.85,28.75-3.69,6.39-9.92,9.52-16.73,11.54A56.12,56.12,0,0,1,327.42,324.15Zm-21.76-20.86c1.14.39,1.62.59,2.12.71a72.58,72.58,0,0,0,23.6,2.07,45.2,45.2,0,0,0,11.76-2.61c5.51-2,6.9-8,3.1-12.55a7.89,7.89,0,0,0-4.22-2.33,17.21,17.21,0,0,0-5.68.05c-8.83,1.16-16.52,5.18-23.91,9.88C310.27,299.89,308.23,301.47,305.66,303.29Z" transform="translate(-167.1 -270.31)"/></svg>