<svg id="Réteg_1" data-name="Réteg 1" xmlns="http://www.w3.org/2000/svg" viewBox="0 0 307.63 409.81"><defs><style>.cls-1{fill:#84a947;}</style></defs><title>plan</title><path class="cls-1" d="M312.2,399.6c8.08,2.24,15.58,5.61,21.19,12.07a38.51,38.51,0,0,1,6,8.87c1.66,3.59,3.92,4.81,7.76,4.68,7.32-.25,14.65-.11,22-.06,8,0,12.71,4.71,12.73,12.64q.07,25.79,0,51.56c0,7.95-4.73,12.67-12.69,12.68q-64.15,0-128.3,0c-8,0-12.67-4.73-12.69-12.68q-.06-25.78,0-51.56c0-7.93,4.75-12.59,12.73-12.64s15.73.12,23.58-.14c1.68,0,4.23-1.14,4.82-2.46,5.64-12.56,15.65-19.47,28.51-23Z" transform="translate(-151.19 -399.6)"/><path class="cls-1" d="M458.65,630.17c0,51.06-.25,102.12.17,153.17.11,14.17-12,26.11-25.89,26.07-85.31-.3-170.63-.15-255.94-.16-15.36,0-25.64-10.26-25.64-25.59,0-102.38.12-204.75-.16-307.13,0-13.66,12.11-26.82,26.12-25.87a201,201,0,0,0,20.39,0c3.91-.13,5.09,1.42,5,5.16-.19,9.6-.12,19.2-.05,28.8.09,11.39,2.63,22,10.88,30.42,6.62,6.75,14.48,11.31,24.21,11.7,8.78.35,17.56.73,26.34.75,32.93.09,65.86.13,98.78-.06a69.06,69.06,0,0,0,16.94-2.15c14.37-3.78,26.54-18.45,26.81-33.7.21-11.72.5-23.43.7-35.14.1-5.53.19-5.7,5.56-5.71,7.06,0,14.13,0,21.19,0a24.27,24.27,0,0,1,24.56,24.66Q458.69,552.79,458.65,630.17ZM241,630.39c3.39-1.93,6.88-3.12,9.29-5.44,10.29-9.87,20.26-20.07,30.34-30.16,6.69-6.69,13.46-13.3,20-20.1,6.2-6.42,4.22-16.79-3.83-19.85-5.18-2-9.86-.84-13.88,3.21-13,13.05-26,26-39,39.07-2.17,2.2-3.7,2.35-5.88,0-4.49-4.74-9.15-9.32-13.84-13.87-5.2-5-12.78-5-17.54-.14s-4.59,12.21.37,17.26c8.31,8.46,16.63,16.91,25.22,25.09C234.45,627.56,237.61,628.55,241,630.39Zm0,102.4c3.38-1.94,6.87-3.14,9.28-5.46,10.94-10.54,21.58-21.39,32.32-32.14,6-6,12.15-12,18.06-18.12,6.18-6.43,4.18-16.8-3.87-19.84-5.19-2-9.87-.81-13.89,3.24-12.86,13-25.85,25.78-38.66,38.8-2.46,2.49-4.08,2.58-6.48,0-4.35-4.68-8.94-9.15-13.54-13.6-5.09-4.91-12.48-5-17.26-.38s-5,12.38.13,17.54c8.31,8.46,16.63,16.91,25.22,25.09C234.47,730,237.64,731,241,732.79Zm127.59-129v.6c7.05,0,14.11.08,21.16,0a37.12,37.12,0,0,0,7.5-.89,12.14,12.14,0,0,0,0-23.61,37.52,37.52,0,0,0-7.9-.9c-13.57-.09-27.15-.07-40.72,0a35.44,35.44,0,0,0-6.33.61c-7.07,1.31-10.9,5.63-10.9,12.1s3.78,11.41,10.89,12C351,604.27,359.82,603.74,368.59,603.74Zm.6,78.15v-.63c-6.92,0-13.84-.08-20.76,0a38.75,38.75,0,0,0-7.51.85,11.58,11.58,0,0,0-9.5,11.66c-.06,6.11,3.52,10.77,9.53,12a38.83,38.83,0,0,0,7.9.85c13.44.09,26.88.07,40.32,0a38,38,0,0,0,6.73-.64c6.81-1.27,10.62-5.6,10.68-11.88.06-6.54-3.69-11.57-10.71-12.13C387,681.36,378.09,681.89,369.19,681.89Z" transform="translate(-151.19 -399.6)"/></svg>