<svg id="Réteg_1" data-name="Réteg 1" xmlns="http://www.w3.org/2000/svg" viewBox="0 0 384.17 384.15"><defs><style>.cls-1{fill:#84a947;}</style></defs><title>question</title><path class="cls-1" d="M104.5,160c1.85-3.94,3.23-8.2,5.65-11.76,6.45-9.47,15.52-14.62,27.17-14.63q91.27,0,182.56,0a33,33,0,0,1,33,30.88c.4,6.1.59,12.22.61,18.33q.11,59.24.09,118.46c0,23-14.23,37.31-37.11,37.31q-41.79,0-83.59-.08a2.68,2.68,0,0,1-.75,0c-8-2.31-13.68,1.79-19.53,6.41-10.49,8.29-21.29,16.18-32,24.13-5.73,4.24-12.53,3.69-16.71-1.59a12.48,12.48,0,0,1-2.4-6.79c-.33-6.23-.24-12.49-.07-18.73.09-3.16-1.15-4.15-4.18-4.08-6.25.16-12.5.06-18.75,0-15.63,0-27.47-8.48-32.66-23.3-.37-1.06-.87-2.07-1.31-3.1Zm157.61,53.8c-.17-13.69-6.06-23.73-17.78-29.88-12.16-6.37-24.18-4.84-35.53,2.43a10.59,10.59,0,0,0-4,12.63,10,10,0,0,0,10.61,6.59c2.51-.26,4.94-1.5,7.36-2.44,4.39-1.7,8.74-2.28,12.85.6,4.42,3.11,5.61,7.64,4.5,12.61-1,4.53-4.39,6.93-8.77,8.33-2.91.93-6,2.09-8.25,4.07-6.16,5.51-5.88,12.84-4.36,20.15,1,5,4.91,7.78,10.06,7.84,5.39,0,9.33-2.69,10.4-7.85a8.23,8.23,0,0,1,4.76-6.11C255.65,236.55,261.77,226.77,262.11,213.8Zm-34,56.47c-6.29,0-10.45,4.32-10.37,10.68.08,6.13,4.24,10.25,10.4,10.28,6.34,0,10.56-4.17,10.56-10.5S234.48,270.23,228.14,270.27Z" transform="translate(-104.5 -133.6)"/><path class="cls-1" d="M393.25,517.75c-9.67-5-19.61-9.46-28.95-15-9.95-5.86-20.25-7.94-31.75-7.57-19.73.64-39.49.21-59.24.17a33,33,0,0,1-33.2-33q0-48.37,0-96.75c0-5.46.05-5.5,5.38-5.5q20.81,0,41.62,0h3.68l1.42,1.77c-1,.36-2.35.45-3.09,1.14-3.26,3.06-3.75,7-2.66,11.07a9.38,9.38,0,0,0,8,7,38.73,38.73,0,0,0,6.69.69q62.81.06,125.61,0a34.21,34.21,0,0,0,7.06-.75A9.7,9.7,0,0,0,442,371.3c.18-5.44-2.38-9.33-7.48-10.72a28.22,28.22,0,0,0-7.39-.89q-45.56-.09-91.11,0H331.2c5.95-2.68,11.57-4.54,16.49-7.55,17.74-10.87,26.92-26.91,27.43-47.79.06-2.37,0-4.75,0-7.12,0-5.2.13-5.33,5.19-5.33q16.69,0,33.37,0c14.25,0,28.5,0,42.75,0,17.2.07,32.17,14.93,32.18,32.09q.09,69.56,0,139.11c0,17.43-14.93,32.23-32.4,32.31-14.13.07-28.25.11-42.37-.05-3.54,0-5.15,1-4.73,4.66.18,1.61-.09,3.26.05,4.87.54,6.17-2.31,10.26-7.67,12.89ZM364,404.65c-21.11,0-42.21,0-63.31,0a27.53,27.53,0,0,0-7,.83c-5.3,1.41-7.91,5.33-7.67,10.94.22,5.05,3.17,8.58,8.33,9.65a33.29,33.29,0,0,0,6.67.71q62.94.06,125.88,0a34,34,0,0,0,7-.78,9.67,9.67,0,0,0,8-9.52c.26-5.46-2.23-9.43-7.25-10.87a27.21,27.21,0,0,0-7.37-1C406.24,404.62,385.13,404.65,364,404.65Z" transform="translate(-104.5 -133.6)"/></svg>