<svg id="Réteg_1" data-name="Réteg 1" xmlns="http://www.w3.org/2000/svg" viewBox="0 0 431.99 431.99"><defs><style>.cls-1{fill:#83a947;}</style></defs><title>youtubeQR</title><path class="cls-1" d="M483.09,391.58v10.65l-10.55.51v9.81l10.38.5v32h21.63l-.12-.13v20.48h-11v-9.89H483v9.9l-10.4.45v10l10.26.6v10.31l9.89-.55-.07-.08,1.15,10.94h20.31v10.43H472.6c-.2,4.07-.38,7.64-.56,11.2l.16-.18H451.54v10.12h20.67l-.15-.15v32.17h11.16l-.14-.14v10.19H493.2V560.59l-.18.16h10.83c.15,3.45.3,6.68.45,10.16l9.84.5v20.72H483.08V571.68H472.47v9.8H462.34v10.61l9.72.47v9.93h10.55v10.74l-10.18.54v9.73H440.65V602.57H430.07l.14.15V592.66l-10.78-.55v-21H398.36c0-5.17.09-9.65,0-14.12-.16-5.93-.49-11.86-.74-17.79,3.88.13,7.74.24,11.61.35v20.78h10V539.74H409.05v-21l10.1-.47V497.85h-21v20.93H388.1V508.27H377.62v10.38h10.61V529h10.5l-1.08,10.26H356.08V549.7l.12-.14-10.07,0,.07.1q0-10.56-.1-21.12h10v-10h10.53V507.7H356.06V476.54l11-.62V465.59H377.2c0,3.73,0,7.45,0,11.18l-9.86-.52v20.69H388.1V486.57h10a20.08,20.08,0,0,0,.19-4.19c-.89-5.17,1.32-6.65,6.26-6.23s9.7.09,15.1.09c-.26-4.18-.46-7.43-.66-10.67h10.78v21.3h-9.86V497.6h20.64c.16,3.7.3,6.77.43,9.87h9.82V486.6H440.68V464.8c0-9.32,0-9.32,9.18-9.92a3,3,0,0,0,.94-.45v-9.68H419a31.93,31.93,0,0,0,.43-5.9c-.42-4,1.11-5.53,5.05-5a31.85,31.85,0,0,0,4.48,0h32.59V423.54H440.92c-.18-3.84-.33-7.09-.48-10.27l-10.71-1.09.1.12V391.92H440.7v20.52h20.85V381.38c-5.9,0-11.52.13-17.12-.1-1.25-.06-3.44-1.29-3.5-2.11-.21-2.7.36-5.46.62-8.2l9.25-.53V360.6H440.45c.44,3.79.83,7.14,1.22,10.48H429.88v10.11c-1.68.08-2.83.17-4,.18-6.4.08-6.4.08-6.41-6.52V360.49l-10.42-.58V349.59h10.1v-11l-.09.09c5.93.09,11.86.33,17.79.21,3.07-.06,4,1.08,4,4a48.7,48.7,0,0,0,.86,7.17l-11.19-.57v10.27h9.57c.56-3.45,1.08-6.59,1.59-9.74l9.54-.35-.14-.13v10.12h10.5c.24-3.63.44-6.88.65-10.12l-.13.13h10.1V338.58l-.11.12H483.2l-.1-.14v21.21h10V350h21v10.11h-20.5v10.25H483.45c-.29-3.22-.58-6.46-.87-9.79H462.17v9.68h21.42c-.16,3.82-.33,7.65-.49,11.47l.11-.14H472.59v10.1h10.62ZM461.47,570.82V540H430.39v30.86ZM461.56,466H451.43v9.88h10.13Zm0,137.15h-9.93v9.93h9.93Zm32.05-21.85h10.14v-9.76H493.63Zm-52.55,10.73h9.81V582h-9.81ZM472,487h-9.74v10.13H472Zm-9.61-42.18v9.81h9.56V444.8Z" transform="translate(-82.2 -191.69)"/><path class="cls-1" d="M334.77,222.19l21.37,1V191.76h10.67v9.59h10.43v-9.59h52.55v72.76c-.14.12-.36.5-.63.53-9.67,1.12-9.67,1.11-9.67-8.5V244.39H399l-1.35,10.72.06-.06q-4.65-.3-9.31-.57c0-3.28,0-6.56,0-10.21l10.19-.56v-10.2h20.63V202.12h-9.81c-.2,3.54-.4,6.91-.58,10.13H398.63c-.19-3.53-.37-6.76-.56-10.1h-9.79c-.18,3.55-.34,6.8-.51,10.19l-10.08.47v9.83l10.08.55v10.56H356.61v10.38h20.78c-.17,3.77-.31,7.05-.45,10.33l-9.68.46v10h10.12c-.21-3.75-.4-7.18-.59-10.61l11.74,0q-.22,10.68-.44,21.36l.13-.12H367.08v21.14l.15-.15H356.12v-9.79H335.05V275.6H282.17V265.5l-9.95-.46V254.59l-.14.13h10c.18,3.66.33,6.88.48,10.08h10.62V233.59l-.13.13h10V223.25l-10-.67.12.1v-31H314c0,3.25,0,6.49,0,9.75l-10.09.73v10.09h10v-11l10.44.61c.2-3.74.37-6.83.55-10.15h20.62v20.5l-10.64.81c0-3.58,0-7.16,0-10.81h-9.68v10l9.79.64q0,4.73-.05,9.46l-20.52,1v20.3h9.95c.18-3.47.34-6.57.51-9.83H335v10l-10,.63v20.5h10.19v-10l11.39-.69c-.36,7-.73,14-1.09,21.05H355.8V254.86l-9.28-.51c-.4-6.79-.8-13.57-1.2-20.4H334.9C334.86,230,334.81,226.11,334.77,222.19Zm-30.85,32.67v9.87h9.89v-9.87Z" transform="translate(-82.2 -191.69)"/><path class="cls-1" d="M187.17,465.59l-21.13,0,.16.15V455.36l10.47-.64V444.59H156.09l.14.14V433.55l-.12.15h20.64c.15-3.43.29-6.51.45-10.12h52.11v-21H219.09l.12.14c-.05-3.73-.1-7.45-.16-11.18H240.3V370.48h10.53c0-6.83.06-13.11,0-19.39-.05-3.78.86-8.34-.93-11-1.21-1.82-6.39-1-9.8-1.35V328.41h10.47l.58-10.84h20.56c.2-3.5.39-6.71.56-9.7h10.32v9.55h11V296.21l-.1.09,9.67.27c.22,3.55.45,7.1.7,11h10.35v10.12c-10.14.55-10.14.55-10.93,10.55a2.14,2.14,0,0,1-.13.48H261.67v10.37H282v10.73H261.61v10l10.1.61v10l-10.56.47v10.54h-10v10.24h9.64v10.95H240v21.05h-10v10h21.15l-.1-.11,0,11.15.17-.13h-10.8c-.18,3.55-.35,6.78-.52,10.26H219.37V434.33H198.08v10.4l.13-.14H187.06v21.13Z" transform="translate(-82.2 -191.69)"/><path class="cls-1" d="M293.46,560.41l-.66,10.36H261.32V539.69h-9.46c-.47-.72-.76-1-.81-1.25-.55-3.11,0-7.44-1.87-9-2-1.74-6.24-1-9.49-1.27l.06.06c.19-3,.38-5.91.6-9.38l-10.44-.54c-.17-3.37-.33-6.63-.52-10.42H187.66V497.77h41.82c.15,3.05.3,6.13.48,9.83h31.1v21.34l11.5-.74c-.21,3.68-.42,7.35-.63,11.07h10v-9.95l-9.47-1c-.21-3.08-.42-6.15-.66-9.54l10.22-.47c.18-3.48.34-6.72.54-10.57h10.64l-.14-.13v11.17h21.14v9.93l-10.34.51V539.6h10.34v21.12h21l-.14-.13v20.83l-10.14.54c-.18,3.44-.35,6.67-.54,10.16h-31V581.88H303V560.56h-9.72c-.16-3.27-.31-6.55-.48-10.16H272.33v10Zm20.9,21h9.8v-9.88h-9.8Z" transform="translate(-82.2 -191.69)"/><path class="cls-1" d="M92.06,402.63v-21l-9.75-.51v-31.6h21c0,3.43,0,6.86,0,10.22h10V349.67H103.11V317.91h10.06V307.75h-9.66V276H156.1v10.76l.11-.13H135.09v10.11l.16-.15-11-.06c0-3.26,0-6.52,0-9.8H113.9v10.13l10.56-.49q0,16.27-.07,32.54H113.93v9.68h10.3v-9.82h11l-.15-.14v21h10.1v10.23l10.5.64c.2,3.74.38,7,.56,10.27H135.1l-.77-10.2H114v20.55l10.19.55q-.06,5.06-.13,10.11l.14-.14H103.08v11.15l.13-.13-11.27-.09Zm.39-21.76h10.37V360.24c-2.71,0-5.2-.31-7.55.14a4.22,4.22,0,0,0-2.69,3C92.31,369.09,92.45,374.84,92.45,380.87Z" transform="translate(-82.2 -191.69)"/><path class="cls-1" d="M239.71,222.16c.12,3.86.23,7.72.35,11.58l.15-.15H230.1v10.12h10.11l-.14-.16.14,22.22-10.62-.52v31.3l-10.7.51v10.19H208.81V286.63l9.9-.52V276h-20.4c-.16,3.5-.31,6.74-.49,10.61H187.08l.1.13v-11H166.52v-63H177v9.89h21.26l-.13-.12L198.5,234H187.81c-.37,3.26-.71,6.28-1.05,9.3l-9.41,1.4v20.21h9.35c0-7.45,0-14.56,0-21.68l11.8,0v21.56h9.74l.45-9.81h10.46v9.86h10.19V244.1c-4.41,0-8.54.09-12.67,0-6.11-.17-12.21-.47-18.31-.71,0-3.17,0-6.36,0-9.54h20.87V212.59l-.14.15h10.38c.18,3.22.36,6.39.58,10.27l9.77-.75Z" transform="translate(-82.2 -191.69)"/><path class="cls-1" d="M219.09,549.69h21v21.17l10.71.58v31.14H292.7v21H282.39v-9.73H261.25v9.76H251v-9.49H218.8c0-3.7,0-7.4,0-11H208.9v10l10,.83v9.62H187.68v-31h20.5V581.59l-.12.12h11.28V592h10V560.54H219.21v-11Zm11,52.71h9.83v-9.72h-9.83Z" transform="translate(-82.2 -191.69)"/><path class="cls-1" d="M492.89,296.86l11.23-.25-.14-.13v10.88h10.13v21.23H493.6c-.17,3.67-.32,6.76-.49,10.51l-10-.54.1.14c-.15-3.22-.31-6.43-.5-10.23l-10.93.58c.18-3.56.35-7.12.53-10.85h-10v10.1l9.62.62c.07,3.26.13,6.52.2,9.78l.11-.12-10.1.8v10.34l.13-.13H451.07l.14.13V318.19H430.05v10.38H420c-.34,3.61-.64,6.86-.94,10.12l.09-.09-10.1.06q.07-15.54.14-31.06l-.13.13,10.09-.49V296.58H409.08l.14.12V276h20.92v31.43h52.74V317.5H493V296.72Z" transform="translate(-82.2 -191.69)"/><path class="cls-1" d="M177.32,560.49c-.2-3.27-.4-6.53-.63-10.18l-10.35-.51v-10H113.91c-.27-4-.5-7.6-.74-11.18l-.09.1h64.13V518.6l-.11.13h10c.18,3.38.33,6.46.52,10h10.55l-.13-.12v10.68h10.1V528.6l-.13.09h11v21l.12-.13H198.46v21.36l10.2.54c-.22,3.72-.41,7-.6,10.25l.12-.12h-9.85c-.17-3.36-.33-6.58-.51-10.05H187.65c-.16,3.24-.31,6.44-.49,10.09H177.1v20.85H166.54V560.9l10.93-.57c-.18,3.41-.34,6.83-.52,10.54H187V560.49Z" transform="translate(-82.2 -191.69)"/><path class="cls-1" d="M82.2,265V191.81h73.44V265Zm62.69-10.5V202.19H92.77v52.27Z" transform="translate(-82.2 -191.69)"/><path class="cls-1" d="M155.53,623.58H82.29V550.3h73.24ZM92.81,560.84v52.28h52.08V560.84Z" transform="translate(-82.2 -191.69)"/><path class="cls-1" d="M441,265V191.73h73.19V265Zm62.76-62.72h-52.2v52.1h52.2Z" transform="translate(-82.2 -191.69)"/><path class="cls-1" d="M367.6,614.13,366.45,603l-10-.5V593c3.49-.56,7.52-.17,9.87-2,1.43-1.1.27-5.58.27-9.14H346.1V571.35h20.46V560.86H356.2v-11.3l-.12.14h31.71v11.1H377.11c.25,3.66-.62,8.08.91,9.2,2.4,1.76,6.43,1.28,10.14,1.8V592l9.9.67v10.19h-10v10.85l.13-.13-20.68.46Z" transform="translate(-82.2 -191.69)"/><path class="cls-1" d="M261,486.84h10.69v-21H261.51c-.17-3.54-.33-6.77-.51-10.38l-9.75-.54c0-3.5,0-6.9,0-10.3l-.17.13,21.16-.15v9.91h42v11.37H303.81v10.09l10.09.62c.17,3.57.33,6.71.49,9.84l.12-.15H293.08v11.48l.13-.12H261.09V486.69Zm21.56-11h10.11v-9.75H282.51Z" transform="translate(-82.2 -191.69)"/><path class="cls-1" d="M156.1,286.74h31.08l-.1-.13v31l10.65.5v10.51H135.09l.15.14q0-16.08,0-32.16l-.16.15,21.47-.48q0,5.92,0,11.84l-11.07-.61v10h9.93l1.06-9.48,9.52-.64.45,10.16h10.13V296.34H156.47q-.14-4.86-.26-9.73Z" transform="translate(-82.2 -191.69)"/><path class="cls-1" d="M103.23,444.74v-20.8h20.69v9.53h10.51l.55-9.58h20.7c.15,3.29.29,6.55.44,9.81l.12-.15-10.67.76v10.42h10.66l-.14-.14c-.05,1.33-.14,2.65-.15,4,0,6.56,0,6.56-6.34,6.57H123.2c-9.22,0-9.22,0-9.84-9.23,0-.29-.28-.56-.67-1.32h-9.61Z" transform="translate(-82.2 -191.69)"/><path class="cls-1" d="M103.21,497.61H92.67v41.65H82.43V486.81h9.75V465.6l-.12.12h32v11l.14-.14H103.08v21.12Z" transform="translate(-82.2 -191.69)"/><path class="cls-1" d="M388.08,286.64V296.7h21.14l-.14-.12v11.15l.13-.13H377.15v10l.11-.13-10.08.76c-.16,3.48-.31,6.72-.47,10H356.6V307.32h10c.22-3.86.43-7.31.63-10.75l-.15.15h10.3v-10h10.85Z" transform="translate(-82.2 -191.69)"/><path class="cls-1" d="M166,465.57v21h-9.93l.11.12-.65-10H135.11v20.37l10.09.65-.13-.13v10.11l.13-.13H124.07l.14.14V476.61l-.14.14,10.38-.9.6-10.13H166.2Z" transform="translate(-82.2 -191.69)"/><path class="cls-1" d="M493,296.72H483.1v-9.9H472.41v9.63H451.27v-9.89H441.15V276H492.9v20.82A1.66,1.66,0,0,1,493,296.72Z" transform="translate(-82.2 -191.69)"/><path class="cls-1" d="M198.08,444.73h10.45v20.86h20.82V486.4H219.17v-10h-32V465.59l-.11.13h11.15V444.59Z" transform="translate(-82.2 -191.69)"/><path class="cls-1" d="M346.5,613.38H324.93c-.19,3.78-.35,6.88-.53,10.21H314.31v-9.78l-10.5-.54V602.9H335V592.74h10.46c.31,7,.61,13.86.91,20.77A1.42,1.42,0,0,1,346.5,613.38Z" transform="translate(-82.2 -191.69)"/><path class="cls-1" d="M483.11,528.7l20.84-.3-.16-.14c.17,3.6.35,7.2.54,11.26h9.81v10.36H493.73c-.27,4.06-.49,7.46-.71,10.87l.18-.16H483.08l.14.14V528.56Z" transform="translate(-82.2 -191.69)"/><path class="cls-1" d="M219.09,402.6v9.84H187.54V391.58H177.1l.11.13q0-5.06-.11-10.11h21.21v21.14h20.9Z" transform="translate(-82.2 -191.69)"/><path class="cls-1" d="M282.26,222.48H261.33V201.91H251.18v-10.1H282v9.87h-9.66v10.68h9.77V222.6Z" transform="translate(-82.2 -191.69)"/><path class="cls-1" d="M156.11,497.73h21v21l.11-.13h-32v-11l-.13.13h10.49c.23-3.65.44-6.87.65-10.1Z" transform="translate(-82.2 -191.69)"/><path class="cls-1" d="M177.1,391.58v20.81H145.2v-9.76l-.14.11,10.49-.57c.24-3.76.46-7.18.68-10.6l-.15.15h21.13Z" transform="translate(-82.2 -191.69)"/><path class="cls-1" d="M240.06,233.74h42.12l-.11-.14v10.26l-10,.55v10.32l.14-.13-11.18.16v-11.2h-21l.14.16V233.59Z" transform="translate(-82.2 -191.69)"/><path class="cls-1" d="M145.2,402.63l-21.12,0,.13.13V391.58l-.14.14h10.3l.77-10.13,21.09,0-.15,10.11.15-.15H145.06v11.17Z" transform="translate(-82.2 -191.69)"/><path class="cls-1" d="M113.17,528.59h-10v-31l-.13.12h10.29l.56,10h10.28l-.14-.14v11H114l-1,10.08Z" transform="translate(-82.2 -191.69)"/><path class="cls-1" d="M92.18,465.6H82.41V434.19h9.72l.62,10.55h10.48l-.15-.15v10.25l-10.35.63-.67,10.25Z" transform="translate(-82.2 -191.69)"/><path class="cls-1" d="M514.08,423.33H493.66V402.74H504v10h10.06Z" transform="translate(-82.2 -191.69)"/><path class="cls-1" d="M261.09,486.69H240.46V466h10.2c.15,3.36.29,6.46.45,10l9.85.55v10.34Z" transform="translate(-82.2 -191.69)"/><path class="cls-1" d="M208,201.79H177.33v-10h31.36c-.3,3.42-.6,6.76-.88,10.08Z" transform="translate(-82.2 -191.69)"/><path class="cls-1" d="M419.06,613.61c.2,3.22.39,6.44.61,10H388.22v-10l-.13.13,31.09,0Z" transform="translate(-82.2 -191.69)"/><path class="cls-1" d="M282.11,582v10H261.56V582Z" transform="translate(-82.2 -191.69)"/><path class="cls-1" d="M367.54,614.06c-.32,3.05-.63,6.09-1,9.46h-21c.31-3.48.6-6.81.9-10.14a1.42,1.42,0,0,0-.12.13l21.22.61Z" transform="translate(-82.2 -191.69)"/><path class="cls-1" d="M492.73,486.28c.31-3.07.62-6.14,1-9.62h20.42v9.55H492.66Z" transform="translate(-82.2 -191.69)"/><path class="cls-1" d="M124.08,402.6v9.81H103.21V402.6l-.13.13h21.13Z" transform="translate(-82.2 -191.69)"/><path class="cls-1" d="M346.13,549.59l-.59,11H335.07l.14.13V550.27l11-.58Z" transform="translate(-82.2 -191.69)"/><path class="cls-1" d="M282.15,222.6l11.06.08-.12-.1c0,3.71,0,7.43,0,11.14l.13-.13H282.07l.11.14c0-3.75.05-7.5.07-11.25Z" transform="translate(-82.2 -191.69)"/><path class="cls-1" d="M503.85,603.07v10.1H493.66v-10.1Z" transform="translate(-82.2 -191.69)"/><path class="cls-1" d="M156.11,486.59v11.14l.1-.12H145.07l.13.13v-11h11Z" transform="translate(-82.2 -191.69)"/><path class="cls-1" d="M208.17,212.72c-.07-3.65-.13-7.29-.21-10.94l-.15.13h11.26v10.82l.14-.15H208.07Z" transform="translate(-82.2 -191.69)"/><path class="cls-1" d="M397.62,255.11l11.15-.6V265h-9.95c-.39-3.52-.75-6.73-1.12-9.93Z" transform="translate(-82.2 -191.69)"/><path class="cls-1" d="M430.07,602.57v11h-11l.12.1c.22-3.57.44-7.14.69-11h10.34Z" transform="translate(-82.2 -191.69)"/><path class="cls-1" d="M239.69,528.16c.21,3.58.43,7.17.67,11.11H230v-10l9.81-1Z" transform="translate(-82.2 -191.69)"/><path class="cls-1" d="M472,518.77h11.07v9.93l.12-.14H472.06l.15.15c0-3.37,0-6.74,0-10.12Z" transform="translate(-82.2 -191.69)"/><path class="cls-1" d="M504.55,445.07c-.2-3.53-.39-7.07-.6-10.9h10.17v10.15l-9.7.61Z" transform="translate(-82.2 -191.69)"/><path class="cls-1" d="M388.09,275.7h10v10.48l-10,.46.15.11c0-3.72,0-7.45,0-11.17Z" transform="translate(-82.2 -191.69)"/><path class="cls-1" d="M92.22,276.1v10H82.44v-10Z" transform="translate(-82.2 -191.69)"/><path class="cls-1" d="M239.8,222.26c.19-3,.39-5.92.61-9.31h10.2v10.2l-10.89-1Z" transform="translate(-82.2 -191.69)"/><path class="cls-1" d="M514.11,381.08h-9.8V370.93h9.8Z" transform="translate(-82.2 -191.69)"/><path class="cls-1" d="M176.73,623.67H166.62v-9.74h10.11Z" transform="translate(-82.2 -191.69)"/><path class="cls-1" d="M293.22,507.71c0-3.37,0-6.73,0-10.1l-.13.12h10.06v9.85H293.08Z" transform="translate(-82.2 -191.69)"/><path class="cls-1" d="M504,528.4v-9.6h10.13v10.27l-10.28-.81Z" transform="translate(-82.2 -191.69)"/><path class="cls-1" d="M91.94,402.51l.6,10H82.35v-9.91h9.72Z" transform="translate(-82.2 -191.69)"/><path class="cls-1" d="M504.12,296.61V286.8h10v9.68H504Z" transform="translate(-82.2 -191.69)"/><path class="cls-1" d="M198.21,528.7v-9.8h10.4c-.19,3.33-.37,6.56-.56,9.79l.13-.09-10.1,0Z" transform="translate(-82.2 -191.69)"/><path class="cls-1" d="M483.1,381.75l9.83-.57v10.4h-9.84l.12.13v-10.1Z" transform="translate(-82.2 -191.69)"/><path class="cls-1" d="M198.21,222.7v-10h10l-.1-.12c.16,3.31.33,6.62.51,10h-10.5Z" transform="translate(-82.2 -191.69)"/><path class="cls-1" d="M314.07,454.7V444.59h20.84c.16-3.52.3-6.75.48-10.8,3.36.24,7.7-.7,9.43,1s1.09,6.11,1.5,9.56h9.73V423.82l10.45-.48V413.13l-10.29-.56v-21l-.14.14h10.58c.22-3.93.39-7,.55-10.11l-.1.11,10.1-.76V370.59l-.15.14h10.69v20.78l-10,.44v20.66h10.42l-.14-.14c.05,3.74.09,7.48.14,11.22l.13-.13H377.61v20.81h20.44v10.5l-9.86.52v10.34H377.06V455.49h-9.83v10.24H346c-.17-3.59-.32-6.68-.48-10.18H335.33v9.76H324.57v-9.78Z" transform="translate(-82.2 -191.69)"/><path class="cls-1" d="M314.07,317.57H324.2v-9.83H314.07V296.58h10.21c.18-3.32.35-6.39.55-10h10.38l-.27,9.82-9.92.68v10.14h9.79v-11l10.65.83v31.21l-10.59.7V318.15H325v10.16l10,.52v9.92l-10.37.54v10.3H314.08l.13.14V338.56l-.13.15h10.14V328.59H314.08l.15.16C314.18,325,314.13,321.3,314.07,317.57Z" transform="translate(-82.2 -191.69)"/><path class="cls-1" d="M293.54,371c-.21-3.41-.43-6.82-.66-10.58l10.3-.54V349.6l-.13.13h11.16l-.13-.14v10.26l10.27.49c.18,3.24.35,6.46.56,10.19h20.54c.29,4.07.54,7.65.79,11.22H324.91c-.15,3.1-.29,6.17-.45,9.61H314.4v-9.77l9.87-.53V370.84H314.18V360.61H303.74c-.16,3.19-.31,6.29-.49,9.83-3.33.15-6.59.3-9.86.43Z" transform="translate(-82.2 -191.69)"/><path class="cls-1" d="M377.15,317.6H398v10.82h-9.77v20.79H367.31v-10h9.95V317.47Z" transform="translate(-82.2 -191.69)"/><path class="cls-1" d="M429.73,412.18c.17,3.6.33,7.2.51,11.1H409.5V392h9.93v20.92l10.41-.62Z" transform="translate(-82.2 -191.69)"/><path class="cls-1" d="M356.2,381.76V360.52h20.85v10.21l.15-.14H367.1v11.13l.1-.11H356.08Z" transform="translate(-82.2 -191.69)"/><path class="cls-1" d="M419.19,444.58v21.15h-9.76V444.58Z" transform="translate(-82.2 -191.69)"/><path class="cls-1" d="M346.57,350l-1.27,9.9h-9.94V349.56l11.3.52Z" transform="translate(-82.2 -191.69)"/><path class="cls-1" d="M408.7,380.82c-10.51,1.73-11.13,1.14-10-9.75h10Z" transform="translate(-82.2 -191.69)"/><path class="cls-1" d="M409.22,338.55v11.18H399.05a10.52,10.52,0,0,1-.63-1.93c-.65-8.63-.65-8.62,7.88-8.86A26.23,26.23,0,0,0,409.22,338.55Z" transform="translate(-82.2 -191.69)"/><path class="cls-1" d="M346.66,350.08c-.37-3.49-.75-7-1.16-10.83h10.41v10.12l-9.35.62Z" transform="translate(-82.2 -191.69)"/><path class="cls-1" d="M388.22,486.72H377.07V476.61h11.15Z" transform="translate(-82.2 -191.69)"/><path class="cls-1" d="M356.21,391.58H346.08v-10l10.12.17-.12-.15q0,5.06,0,10.11Z" transform="translate(-82.2 -191.69)"/><path class="cls-1" d="M388.13,423.69h10v9.91h-9.88v-10Z" transform="translate(-82.2 -191.69)"/><path class="cls-1" d="M388.13,412.61v-9.75h10v9.62H388Z" transform="translate(-82.2 -191.69)"/><path class="cls-1" d="M314.07,539.73V528.57h10.22c.18-3.23.34-6.31.53-10h21.4v10.1H335.33v11Z" transform="translate(-82.2 -191.69)"/><path class="cls-1" d="M314.38,486.4l9.83.52V507.4h-9.72q0-10.54,0-21.14Z" transform="translate(-82.2 -191.69)"/><path class="cls-1" d="M345.56,487v10.07H335.45V487Z" transform="translate(-82.2 -191.69)"/><path class="cls-1" d="M356.21,518.73H346.1V508l10.11-.44Z" transform="translate(-82.2 -191.69)"/><path class="cls-1" d="M441,560.34V550.27h9.84v10.07Z" transform="translate(-82.2 -191.69)"/><path class="cls-1" d="M251.22,317.7H230c-.19,3.91-.35,7.16-.52,10.75h-10V349.3h9.93c.15-3.29.29-6.39.46-9.95l10.34-.79v11H230c-.16,3.64-.3,6.72-.47,10.45H209c-.29,4-.53,7.37-.77,10.76h-9.77V360.38l10-.53v-42h21c.19-3.74.35-6.85.53-10.37h10.2V286.72h10.53c.17,3.4.33,6.48.52,10H261v10.7h-9.74Z" transform="translate(-82.2 -191.69)"/><path class="cls-1" d="M177.23,381.76l-21.13,0c0-3.72,0-7.43,0-11.15h10v-21h11.17Z" transform="translate(-82.2 -191.69)"/><path class="cls-1" d="M208,370.58h21.31V381.1l-10.14.53v10.09H208Z" transform="translate(-82.2 -191.69)"/><path class="cls-1" d="M166.2,349.73H145.06V339.37H166.2Z" transform="translate(-82.2 -191.69)"/><path class="cls-1" d="M240.07,265.61l10.6-.74V254.58h10.54V265l-10.08.6c-.16,3.36-.3,6.43-.45,9.82H240.07Z" transform="translate(-82.2 -191.69)"/><path class="cls-1" d="M271.74,276.09V286H261.65v-9.91Z" transform="translate(-82.2 -191.69)"/><path class="cls-1" d="M314.22,296.72H303.06l.67-10h10.49Z" transform="translate(-82.2 -191.69)"/><path class="cls-1" d="M293.59,296.21l-11,.75V286.77h10.1c.25,3.12.5,6.33.77,9.54Z" transform="translate(-82.2 -191.69)"/><path class="cls-1" d="M314.22,444.73H272.08v-21h10.1l-.11-.13c.18,3.24.36,6.48.55,10h10.59v-10l-.12.13h10.15c.15,3.28.28,6.32.45,10.26l10.13-.73-.11-.11Z" transform="translate(-82.2 -191.69)"/><path class="cls-1" d="M293.15,412.62V392h10c.2,3.26.39,6.49.61,10.31h20.6v10.15H293Z" transform="translate(-82.2 -191.69)"/><path class="cls-1" d="M303.06,328.6l11.17.15-.15-.16v10.12l.13-.15-10.43.9c-.27,3.75-.5,7-.73,10.27l.13-.13h-9.76V339.22h9.64Z" transform="translate(-82.2 -191.69)"/><path class="cls-1" d="M251.22,433.68V413.12h9.68v20.46h-9.78Z" transform="translate(-82.2 -191.69)"/><path class="cls-1" d="M282.32,381.9V371h11.21l-.14-.11c-.17,3.25-.36,6.49-.57,10.13l-10.62.78Z" transform="translate(-82.2 -191.69)"/><path class="cls-1" d="M282,412.72l11.13-.1-.13-.14.06,11.25.12-.13H282.07l.11.13c0-3.71,0-7.42,0-11.13Z" transform="translate(-82.2 -191.69)"/><path class="cls-1" d="M313.82,433.26l.48-9.32h10v10.18c-3.63-.33-7.11-.64-10.61-1Z" transform="translate(-82.2 -191.69)"/><path class="cls-1" d="M345.54,412.55h-10v-9.79h10Z" transform="translate(-82.2 -191.69)"/><path class="cls-1" d="M282.16,412.6h-9.82v-9.71H282v9.83Z" transform="translate(-82.2 -191.69)"/><path class="cls-1" d="M282.2,381.78v9.67h-9.89V381.27l10,.63Z" transform="translate(-82.2 -191.69)"/><path class="cls-1" d="M135.25,381.75H124.07V370.58h11.17C135.24,374.3,135.24,378,135.25,381.75Z" transform="translate(-82.2 -191.69)"/><path class="cls-1" d="M103.34,244.07V212.8h31.44c0,9.67.08,19.11-.11,28.54A3.75,3.75,0,0,1,132.1,244C122.65,244.14,113.19,244.07,103.34,244.07Z" transform="translate(-82.2 -191.69)"/><path class="cls-1" d="M103.45,571.45h31v30.9h-31Z" transform="translate(-82.2 -191.69)"/><path class="cls-1" d="M462.11,243.73V212.85h30.83v30.88Z" transform="translate(-82.2 -191.69)"/></svg>