<svg id="Réteg_1" data-name="Réteg 1" xmlns="http://www.w3.org/2000/svg" viewBox="0 0 512.5 446.31"><defs><style>.cls-1{fill:#eb595b;}.cls-2{fill:#fffdfd;}.cls-3{fill:#fffefe;}</style></defs><title>logo</title><path class="cls-1" d="M289.05,309.61a220,220,0,0,1,27.69-49.47c21.49-28.6,47.71-51.18,82.35-62.26,37.74-12.08,72.5-5.08,103.79,18.56,21,15.87,37.34,35.59,45,61.44,6.52,22,5.69,44,.12,66.09-7.38,29.27-20.88,55.7-37.31,80.79-31.54,48.15-70.64,89.69-112.59,128.74a1116.55,1116.55,0,0,1-99.75,83.19c-3.14,2.3-5,2.26-8-.2-51.46-42.14-102.14-85.17-149-132.42-27-27.26-52-56.33-72.22-89.14C55,392,44.17,367.75,40.9,340.81c-2.42-20-.16-39.54,7.64-58.29,10.68-25.7,26.73-47.48,49.67-63.17C125,201,154.51,198.61,185.13,208.8c34.78,11.58,60.94,34.38,81.51,63.92C274.77,284.4,281.49,297.06,289.05,309.61Zm-101,154.24-1.62-.07c-.65-1.83-1.42-3.62-1.93-5.49-6.3-23.1-13-46.11-18.73-69.35-7.25-29.38-13.88-58.92-20.42-88.47-2.63-11.87-8.09-15.76-19.29-16.16-5.13-.18-7.22,1.93-6.52,7,1.19,8.69,2.84,17.35,4.77,25.92,9.28,41,18.28,82.14,28.28,123,5.77,23.55,12.92,46.79,20.15,69.95,3.6,11.54,7.92,13.77,20.09,13.77,13.54,0,15.31-2.68,9.25-15a15.09,15.09,0,0,1-.35-13.65c15.77-37.71,23.44-77.34,25.71-117.93,1.31-23.59,1-47.3.61-70.94-.17-11.26-1.78-22.56-3.55-33.71-.49-3.1-3.31-6.69-6.08-8.39-6.31-3.89-13.44-3.4-20.23-.82-2.84,1.09-4.58,3.4-3.12,6.81,5.48,12.86,5.84,26.64,6.5,40.21,1.79,36.64,2.07,73.3-4.23,109.61C194.81,434.85,191.19,449.31,188.06,463.85ZM403.3,297.23c3.24,0,6.72.22,10.16-.05,9.44-.73,18.93-1.2,28.26-2.69,6.58-1.05,11.54-4.95,12.76-12.26,1.16-7-1.33-10.46-8.34-9.93-14.09,1.05-28.13,2.73-42.21,3.91-2,.17-4.21-.89-6.23-1.62-4.15-1.5-8.14-3.72-12.41-4.48-1.71-.3-5.54,2.31-5.69,3.85-.48,5.16-3.77,5.55-7.49,5.87-2.16.18-4.36,0-6.48.36-9,1.41-18.07,2.62-27,4.56-4.34.95-7.46,4.13-8.69,8.81-1.58,6,.19,8.71,6.42,8.62,7-.1,14-.57,20.94-1,6.59-.39,13.18-.91,20.06-1.4.15,1.67.39,3,.37,4.24-.45,42.47-.57,84.94,2.72,127.34,2,25.38,4.12,50.75,5.94,76.14.72,10,5.41,12.34,14.31,14.31,2.4.53,5,.25,7.47.33,4.37.14,6.38-2.54,7-6.35a24.13,24.13,0,0,0-.3-6.44c-2.45-20.31-5.51-40.56-7.28-60.92-2-23.38-3.51-46.84-4.13-70.29C402.77,351.54,403.3,324.89,403.3,297.23ZM295.64,404.37c8.65-.38,15.79-.52,22.89-1.06,6.92-.52,11-4.67,12-11.6.71-4.8-.49-6.69-5.33-6.81-6.65-.17-13.31.19-20,.38-2.9.09-5.79.33-9.72.56,0-10.78.43-20.78-.21-30.72a25.17,25.17,0,0,0-4.51-12.19c-2.69-3.83-7.88-4.21-11.86-2.54-1.91.8-3.29,4.82-3.46,7.47-.65,9.62-.7,19.28-.93,28.92-.08,3.42,0,6.83,0,10.37-3.72.32-6.76.29-9.67.89-4.83,1-10,1.65-14.21,3.91-2.44,1.3-4.53,5.41-4.66,8.35-.18,4.08,4.1,4.07,7.22,4.28s6,.11,9,0c3.91-.12,7.81-.36,12.08-.56v6.15c0,10-.08,20,.16,30,.15,6.74,2.72,9.74,9.22,11.12a35.91,35.91,0,0,0,8.9.74c5.72-.25,7-2.32,6.4-8.06C297.73,430.94,296.76,417.88,295.64,404.37Z" transform="translate(-39.98 -192.07)"/><path class="cls-2" d="M188.06,463.85c3.13-14.54,6.75-29,9.29-43.65,6.3-36.31,6-73,4.23-109.61-.66-13.57-1-27.35-6.5-40.21-1.46-3.41.28-5.72,3.12-6.81,6.79-2.58,13.92-3.07,20.23.82,2.77,1.7,5.59,5.29,6.08,8.39,1.77,11.15,3.38,22.45,3.55,33.71.37,23.64.7,47.35-.61,70.94-2.27,40.59-9.94,80.22-25.71,117.93a15.09,15.09,0,0,0,.35,13.65c6.06,12.28,4.29,15-9.25,15-12.17,0-16.49-2.23-20.09-13.77-7.23-23.16-14.38-46.4-20.15-69.95-10-40.86-19-82-28.28-123-1.93-8.57-3.58-17.23-4.77-25.92-.7-5.09,1.39-7.2,6.52-7,11.2.4,16.66,4.29,19.29,16.16,6.54,29.55,13.17,59.09,20.42,88.47,5.74,23.24,12.43,46.25,18.73,69.35.51,1.87,1.28,3.66,1.93,5.49Z" transform="translate(-39.98 -192.07)"/><path class="cls-2" d="M403.3,297.23c0,27.66-.53,54.31.16,80.93.62,23.45,2.11,46.91,4.13,70.29,1.77,20.36,4.83,40.61,7.28,60.92a24.13,24.13,0,0,1,.3,6.44c-.58,3.81-2.59,6.49-7,6.35-2.49-.08-5.07.2-7.47-.33-8.9-2-13.59-4.3-14.31-14.31-1.82-25.39-4-50.76-5.94-76.14-3.29-42.4-3.17-84.87-2.72-127.34,0-1.28-.22-2.57-.37-4.24-6.88.49-13.47,1-20.06,1.4-7,.41-14,.88-20.94,1-6.23.09-8-2.62-6.42-8.62,1.23-4.68,4.35-7.86,8.69-8.81,8.89-1.94,17.95-3.15,27-4.56,2.12-.33,4.32-.18,6.48-.36,3.72-.32,7-.71,7.49-5.87.15-1.54,4-4.15,5.69-3.85,4.27.76,8.26,3,12.41,4.48,2,.73,4.2,1.79,6.23,1.62,14.08-1.18,28.12-2.86,42.21-3.91,7-.53,9.5,2.95,8.34,9.93-1.22,7.31-6.18,11.21-12.76,12.26-9.33,1.49-18.82,2-28.26,2.69C410,297.45,406.54,297.23,403.3,297.23Z" transform="translate(-39.98 -192.07)"/><path class="cls-3" d="M295.64,404.37c1.12,13.51,2.09,26.57,3.35,39.6.56,5.74-.68,7.81-6.4,8.06a35.91,35.91,0,0,1-8.9-.74c-6.5-1.38-9.07-4.38-9.22-11.12-.24-10-.13-20-.16-30v-6.15c-4.27.2-8.17.44-12.08.56-3,.08-6,.16-9,0s-7.4-.2-7.22-4.28c.13-2.94,2.22-7.05,4.66-8.35,4.23-2.26,9.38-2.91,14.21-3.91,2.91-.6,5.95-.57,9.67-.89,0-3.54-.07-6.95,0-10.37.23-9.64.28-19.3.93-28.92.17-2.65,1.55-6.67,3.46-7.47,4-1.67,9.17-1.29,11.86,2.54a25.17,25.17,0,0,1,4.51,12.19c.64,9.94.21,19.94.21,30.72,3.93-.23,6.82-.47,9.72-.56,6.65-.19,13.31-.55,20-.38,4.84.12,6,2,5.33,6.81-1,6.93-5.1,11.08-12,11.6C311.43,403.85,304.29,404,295.64,404.37Z" transform="translate(-39.98 -192.07)"/></svg>